<mxfile host="app.diagrams.net" modified="2023-07-29T04:12:22.764Z" agent="Mozilla/5.0 (Windows NT 10.0; Win64; x64) AppleWebKit/537.36 (KHTML, like Gecko) Chrome/115.0.0.0 Safari/537.36" etag="IbWn8XohHme-lR80ILvp" version="21.6.6" type="device">
  <diagram id="R2lEEEUBdFMjLlhIrx00" name="Page-1">
    <mxGraphModel dx="1050" dy="542" grid="1" gridSize="10" guides="1" tooltips="1" connect="1" arrows="0" fold="1" page="1" pageScale="1" pageWidth="850" pageHeight="1100" background="#fff5f5" math="0" shadow="0" extFonts="Permanent Marker^https://fonts.googleapis.com/css?family=Permanent+Marker">
      <root>
        <mxCell id="0" />
        <mxCell id="1" parent="0" />
        <mxCell id="mD55ZFkwyIkEzU0t6Eyz-1" value="Reality show" style="whiteSpace=wrap;html=1;align=center;" parent="1" vertex="1">
          <mxGeometry x="370" y="620" width="90" height="40" as="geometry" />
        </mxCell>
        <mxCell id="ZFWlgPHszVMF4P1lqxEH-1" value="show id" style="ellipse;whiteSpace=wrap;html=1;align=center;fontStyle=4;" vertex="1" parent="1">
          <mxGeometry x="150" y="660" width="90" height="40" as="geometry" />
        </mxCell>
        <mxCell id="ZFWlgPHszVMF4P1lqxEH-5" value="" style="endArrow=none;html=1;rounded=0;entryX=0;entryY=0.5;entryDx=0;entryDy=0;exitX=1;exitY=0.5;exitDx=0;exitDy=0;" edge="1" parent="1" source="ZFWlgPHszVMF4P1lqxEH-1" target="mD55ZFkwyIkEzU0t6Eyz-1">
          <mxGeometry relative="1" as="geometry">
            <mxPoint x="260" y="690" as="sourcePoint" />
            <mxPoint x="340" y="690" as="targetPoint" />
          </mxGeometry>
        </mxCell>
        <mxCell id="ZFWlgPHszVMF4P1lqxEH-6" value="name" style="ellipse;whiteSpace=wrap;html=1;align=center;" vertex="1" parent="1">
          <mxGeometry x="140" y="490" width="100" height="40" as="geometry" />
        </mxCell>
        <mxCell id="ZFWlgPHszVMF4P1lqxEH-7" value="" style="endArrow=none;html=1;rounded=0;exitX=0.984;exitY=0.78;exitDx=0;exitDy=0;exitPerimeter=0;entryX=0.098;entryY=0.01;entryDx=0;entryDy=0;entryPerimeter=0;" edge="1" parent="1" source="ZFWlgPHszVMF4P1lqxEH-6" target="mD55ZFkwyIkEzU0t6Eyz-1">
          <mxGeometry relative="1" as="geometry">
            <mxPoint x="230" y="580" as="sourcePoint" />
            <mxPoint x="390" y="580" as="targetPoint" />
          </mxGeometry>
        </mxCell>
        <mxCell id="ZFWlgPHszVMF4P1lqxEH-9" value="basic information" style="ellipse;whiteSpace=wrap;html=1;align=center;" vertex="1" parent="1">
          <mxGeometry x="370" y="460" width="100" height="40" as="geometry" />
        </mxCell>
        <mxCell id="ZFWlgPHszVMF4P1lqxEH-10" value="" style="endArrow=none;html=1;rounded=0;exitX=0.4;exitY=0.05;exitDx=0;exitDy=0;exitPerimeter=0;" edge="1" parent="1" source="mD55ZFkwyIkEzU0t6Eyz-1" target="ZFWlgPHszVMF4P1lqxEH-9">
          <mxGeometry relative="1" as="geometry">
            <mxPoint x="340" y="680" as="sourcePoint" />
            <mxPoint x="430" y="520" as="targetPoint" />
            <Array as="points" />
          </mxGeometry>
        </mxCell>
        <mxCell id="ZFWlgPHszVMF4P1lqxEH-11" value="" style="endArrow=none;html=1;rounded=0;exitX=0.7;exitY=0.25;exitDx=0;exitDy=0;exitPerimeter=0;entryX=0.133;entryY=1.03;entryDx=0;entryDy=0;entryPerimeter=0;" edge="1" parent="1" source="ZFWlgPHszVMF4P1lqxEH-12" target="mD55ZFkwyIkEzU0t6Eyz-1">
          <mxGeometry relative="1" as="geometry">
            <mxPoint x="358.79999999999995" y="769.2" as="sourcePoint" />
            <mxPoint x="390" y="680" as="targetPoint" />
          </mxGeometry>
        </mxCell>
        <mxCell id="ZFWlgPHszVMF4P1lqxEH-12" value="participant&#39;s name" style="ellipse;shape=doubleEllipse;margin=3;whiteSpace=wrap;html=1;align=center;" vertex="1" parent="1">
          <mxGeometry x="300" y="780" width="100" height="40" as="geometry" />
        </mxCell>
        <mxCell id="ZFWlgPHszVMF4P1lqxEH-13" value="has" style="shape=rhombus;perimeter=rhombusPerimeter;whiteSpace=wrap;html=1;align=center;" vertex="1" parent="1">
          <mxGeometry x="510" y="540" width="120" height="60" as="geometry" />
        </mxCell>
        <mxCell id="ZFWlgPHszVMF4P1lqxEH-15" value="producer" style="whiteSpace=wrap;html=1;align=center;" vertex="1" parent="1">
          <mxGeometry x="550" y="720" width="100" height="40" as="geometry" />
        </mxCell>
        <mxCell id="ZFWlgPHszVMF4P1lqxEH-25" value="producer id" style="ellipse;whiteSpace=wrap;html=1;align=center;fontStyle=4;" vertex="1" parent="1">
          <mxGeometry x="440" y="820" width="100" height="40" as="geometry" />
        </mxCell>
        <mxCell id="ZFWlgPHszVMF4P1lqxEH-26" value="company name" style="ellipse;whiteSpace=wrap;html=1;align=center;" vertex="1" parent="1">
          <mxGeometry x="580" y="860" width="100" height="60" as="geometry" />
        </mxCell>
        <mxCell id="ZFWlgPHszVMF4P1lqxEH-27" value="country" style="ellipse;whiteSpace=wrap;html=1;align=center;" vertex="1" parent="1">
          <mxGeometry x="690" y="780" width="100" height="40" as="geometry" />
        </mxCell>
        <mxCell id="ZFWlgPHszVMF4P1lqxEH-28" value="" style="endArrow=none;html=1;rounded=0;exitX=0.5;exitY=0;exitDx=0;exitDy=0;entryX=0.112;entryY=1.09;entryDx=0;entryDy=0;entryPerimeter=0;" edge="1" parent="1" source="ZFWlgPHszVMF4P1lqxEH-25" target="ZFWlgPHszVMF4P1lqxEH-15">
          <mxGeometry relative="1" as="geometry">
            <mxPoint x="510" y="750" as="sourcePoint" />
            <mxPoint x="670" y="750" as="targetPoint" />
          </mxGeometry>
        </mxCell>
        <mxCell id="ZFWlgPHszVMF4P1lqxEH-29" value="" style="endArrow=none;html=1;rounded=0;exitX=0.1;exitY=0.25;exitDx=0;exitDy=0;exitPerimeter=0;entryX=0.864;entryY=0.99;entryDx=0;entryDy=0;entryPerimeter=0;" edge="1" parent="1" source="ZFWlgPHszVMF4P1lqxEH-27" target="ZFWlgPHszVMF4P1lqxEH-15">
          <mxGeometry relative="1" as="geometry">
            <mxPoint x="510" y="750" as="sourcePoint" />
            <mxPoint x="640" y="740" as="targetPoint" />
          </mxGeometry>
        </mxCell>
        <mxCell id="ZFWlgPHszVMF4P1lqxEH-30" value="" style="endArrow=none;html=1;rounded=0;exitX=0.38;exitY=0.007;exitDx=0;exitDy=0;exitPerimeter=0;entryX=0.632;entryY=1.05;entryDx=0;entryDy=0;entryPerimeter=0;" edge="1" parent="1" source="ZFWlgPHszVMF4P1lqxEH-26" target="ZFWlgPHszVMF4P1lqxEH-15">
          <mxGeometry relative="1" as="geometry">
            <mxPoint x="510" y="750" as="sourcePoint" />
            <mxPoint x="600" y="760" as="targetPoint" />
          </mxGeometry>
        </mxCell>
        <mxCell id="ZFWlgPHszVMF4P1lqxEH-32" value="" style="endArrow=none;html=1;rounded=0;exitX=0.416;exitY=-0.07;exitDx=0;exitDy=0;exitPerimeter=0;entryX=0.667;entryY=0.887;entryDx=0;entryDy=0;entryPerimeter=0;" edge="1" parent="1" source="ZFWlgPHszVMF4P1lqxEH-15" target="ZFWlgPHszVMF4P1lqxEH-13">
          <mxGeometry relative="1" as="geometry">
            <mxPoint x="510" y="750" as="sourcePoint" />
            <mxPoint x="670" y="750" as="targetPoint" />
          </mxGeometry>
        </mxCell>
        <mxCell id="ZFWlgPHszVMF4P1lqxEH-33" value="1" style="resizable=0;html=1;whiteSpace=wrap;align=right;verticalAlign=bottom;" connectable="0" vertex="1" parent="ZFWlgPHszVMF4P1lqxEH-32">
          <mxGeometry x="1" relative="1" as="geometry" />
        </mxCell>
        <mxCell id="ZFWlgPHszVMF4P1lqxEH-35" value="" style="endArrow=none;html=1;rounded=0;exitX=0.862;exitY=-0.07;exitDx=0;exitDy=0;exitPerimeter=0;entryX=0.187;entryY=0.713;entryDx=0;entryDy=0;entryPerimeter=0;" edge="1" parent="1" source="mD55ZFkwyIkEzU0t6Eyz-1" target="ZFWlgPHszVMF4P1lqxEH-13">
          <mxGeometry relative="1" as="geometry">
            <mxPoint x="500" y="650" as="sourcePoint" />
            <mxPoint x="670" y="750" as="targetPoint" />
          </mxGeometry>
        </mxCell>
        <mxCell id="ZFWlgPHszVMF4P1lqxEH-36" value="N" style="resizable=0;html=1;whiteSpace=wrap;align=right;verticalAlign=bottom;" connectable="0" vertex="1" parent="ZFWlgPHszVMF4P1lqxEH-35">
          <mxGeometry x="1" relative="1" as="geometry" />
        </mxCell>
        <mxCell id="ZFWlgPHszVMF4P1lqxEH-37" value="TV channel" style="whiteSpace=wrap;html=1;align=center;" vertex="1" parent="1">
          <mxGeometry x="210" y="290" width="100" height="40" as="geometry" />
        </mxCell>
        <mxCell id="ZFWlgPHszVMF4P1lqxEH-38" value="has" style="shape=rhombus;perimeter=rhombusPerimeter;whiteSpace=wrap;html=1;align=center;" vertex="1" parent="1">
          <mxGeometry x="270" y="420" width="50" height="60" as="geometry" />
        </mxCell>
        <mxCell id="ZFWlgPHszVMF4P1lqxEH-42" value="name" style="ellipse;whiteSpace=wrap;html=1;align=center;" vertex="1" parent="1">
          <mxGeometry x="70" y="290" width="100" height="40" as="geometry" />
        </mxCell>
        <mxCell id="ZFWlgPHszVMF4P1lqxEH-43" value="id" style="ellipse;whiteSpace=wrap;html=1;align=center;fontStyle=4;" vertex="1" parent="1">
          <mxGeometry x="190" y="210" width="100" height="40" as="geometry" />
        </mxCell>
        <mxCell id="ZFWlgPHszVMF4P1lqxEH-44" value="start year" style="ellipse;whiteSpace=wrap;html=1;align=center;" vertex="1" parent="1">
          <mxGeometry x="365" y="260" width="100" height="40" as="geometry" />
        </mxCell>
        <mxCell id="ZFWlgPHszVMF4P1lqxEH-45" value="head office" style="ellipse;whiteSpace=wrap;html=1;align=center;" vertex="1" parent="1">
          <mxGeometry x="340" y="340" width="100" height="40" as="geometry" />
        </mxCell>
        <mxCell id="ZFWlgPHszVMF4P1lqxEH-46" value="" style="endArrow=none;html=1;rounded=0;exitX=0.976;exitY=0.7;exitDx=0;exitDy=0;exitPerimeter=0;entryX=0.176;entryY=0.04;entryDx=0;entryDy=0;entryPerimeter=0;" edge="1" parent="1" source="ZFWlgPHszVMF4P1lqxEH-42" target="ZFWlgPHszVMF4P1lqxEH-37">
          <mxGeometry relative="1" as="geometry">
            <mxPoint x="510" y="450" as="sourcePoint" />
            <mxPoint x="670" y="450" as="targetPoint" />
          </mxGeometry>
        </mxCell>
        <mxCell id="ZFWlgPHszVMF4P1lqxEH-47" value="" style="endArrow=none;html=1;rounded=0;exitX=0.624;exitY=1.04;exitDx=0;exitDy=0;exitPerimeter=0;entryX=0.88;entryY=0.02;entryDx=0;entryDy=0;entryPerimeter=0;" edge="1" parent="1" source="ZFWlgPHszVMF4P1lqxEH-43" target="ZFWlgPHszVMF4P1lqxEH-37">
          <mxGeometry relative="1" as="geometry">
            <mxPoint x="510" y="450" as="sourcePoint" />
            <mxPoint x="670" y="450" as="targetPoint" />
          </mxGeometry>
        </mxCell>
        <mxCell id="ZFWlgPHszVMF4P1lqxEH-48" value="" style="endArrow=none;html=1;rounded=0;exitX=1;exitY=1;exitDx=0;exitDy=0;entryX=0.002;entryY=0.75;entryDx=0;entryDy=0;entryPerimeter=0;" edge="1" parent="1" source="ZFWlgPHszVMF4P1lqxEH-37" target="ZFWlgPHszVMF4P1lqxEH-44">
          <mxGeometry relative="1" as="geometry">
            <mxPoint x="510" y="450" as="sourcePoint" />
            <mxPoint x="670" y="450" as="targetPoint" />
          </mxGeometry>
        </mxCell>
        <mxCell id="ZFWlgPHszVMF4P1lqxEH-51" value="" style="endArrow=none;html=1;rounded=0;exitX=0.6;exitY=0.96;exitDx=0;exitDy=0;exitPerimeter=0;entryX=0.068;entryY=0.27;entryDx=0;entryDy=0;entryPerimeter=0;" edge="1" parent="1" source="ZFWlgPHszVMF4P1lqxEH-37" target="ZFWlgPHszVMF4P1lqxEH-45">
          <mxGeometry relative="1" as="geometry">
            <mxPoint x="510" y="450" as="sourcePoint" />
            <mxPoint x="670" y="450" as="targetPoint" />
          </mxGeometry>
        </mxCell>
        <mxCell id="ZFWlgPHszVMF4P1lqxEH-52" value="" style="endArrow=none;html=1;rounded=0;exitX=0.4;exitY=1;exitDx=0;exitDy=0;exitPerimeter=0;entryX=0.32;entryY=0.14;entryDx=0;entryDy=0;entryPerimeter=0;" edge="1" parent="1" source="ZFWlgPHszVMF4P1lqxEH-37" target="ZFWlgPHszVMF4P1lqxEH-38">
          <mxGeometry relative="1" as="geometry">
            <mxPoint x="510" y="450" as="sourcePoint" />
            <mxPoint x="670" y="450" as="targetPoint" />
          </mxGeometry>
        </mxCell>
        <mxCell id="ZFWlgPHszVMF4P1lqxEH-53" value="1" style="resizable=0;html=1;whiteSpace=wrap;align=right;verticalAlign=bottom;" connectable="0" vertex="1" parent="ZFWlgPHszVMF4P1lqxEH-52">
          <mxGeometry x="1" relative="1" as="geometry" />
        </mxCell>
        <mxCell id="ZFWlgPHszVMF4P1lqxEH-54" value="" style="endArrow=none;html=1;rounded=0;exitX=0.72;exitY=0.887;exitDx=0;exitDy=0;exitPerimeter=0;entryX=0.356;entryY=-0.07;entryDx=0;entryDy=0;entryPerimeter=0;" edge="1" parent="1" source="ZFWlgPHszVMF4P1lqxEH-38" target="mD55ZFkwyIkEzU0t6Eyz-1">
          <mxGeometry relative="1" as="geometry">
            <mxPoint x="510" y="450" as="sourcePoint" />
            <mxPoint x="670" y="450" as="targetPoint" />
          </mxGeometry>
        </mxCell>
        <mxCell id="ZFWlgPHszVMF4P1lqxEH-55" value="N" style="resizable=0;html=1;whiteSpace=wrap;align=right;verticalAlign=bottom;" connectable="0" vertex="1" parent="ZFWlgPHszVMF4P1lqxEH-54">
          <mxGeometry x="1" relative="1" as="geometry" />
        </mxCell>
        <mxCell id="ZFWlgPHszVMF4P1lqxEH-56" value="user" style="whiteSpace=wrap;html=1;align=center;" vertex="1" parent="1">
          <mxGeometry x="610" y="280" width="100" height="40" as="geometry" />
        </mxCell>
        <mxCell id="ZFWlgPHszVMF4P1lqxEH-57" value="rate" style="shape=rhombus;perimeter=rhombusPerimeter;whiteSpace=wrap;html=1;align=center;" vertex="1" parent="1">
          <mxGeometry x="520" y="390" width="70" height="60" as="geometry" />
        </mxCell>
        <mxCell id="ZFWlgPHszVMF4P1lqxEH-58" value="user id" style="ellipse;whiteSpace=wrap;html=1;align=center;fontStyle=4;" vertex="1" parent="1">
          <mxGeometry x="540" y="220" width="100" height="40" as="geometry" />
        </mxCell>
        <mxCell id="ZFWlgPHszVMF4P1lqxEH-59" value="name" style="ellipse;whiteSpace=wrap;html=1;align=center;" vertex="1" parent="1">
          <mxGeometry x="670" y="200" width="100" height="40" as="geometry" />
        </mxCell>
        <mxCell id="ZFWlgPHszVMF4P1lqxEH-60" value="password" style="ellipse;whiteSpace=wrap;html=1;align=center;" vertex="1" parent="1">
          <mxGeometry x="740" y="270" width="100" height="40" as="geometry" />
        </mxCell>
        <mxCell id="ZFWlgPHszVMF4P1lqxEH-61" value="age" style="ellipse;whiteSpace=wrap;html=1;align=center;" vertex="1" parent="1">
          <mxGeometry x="690" y="360" width="100" height="40" as="geometry" />
        </mxCell>
        <mxCell id="ZFWlgPHszVMF4P1lqxEH-62" value="" style="endArrow=none;html=1;rounded=0;exitX=0.578;exitY=-0.05;exitDx=0;exitDy=0;exitPerimeter=0;entryX=0.634;entryY=1;entryDx=0;entryDy=0;entryPerimeter=0;" edge="1" parent="1" source="mD55ZFkwyIkEzU0t6Eyz-1" target="ZFWlgPHszVMF4P1lqxEH-57">
          <mxGeometry relative="1" as="geometry">
            <mxPoint x="510" y="350" as="sourcePoint" />
            <mxPoint x="670" y="350" as="targetPoint" />
          </mxGeometry>
        </mxCell>
        <mxCell id="ZFWlgPHszVMF4P1lqxEH-63" value="1" style="resizable=0;html=1;whiteSpace=wrap;align=right;verticalAlign=bottom;" connectable="0" vertex="1" parent="ZFWlgPHszVMF4P1lqxEH-62">
          <mxGeometry x="1" relative="1" as="geometry" />
        </mxCell>
        <mxCell id="ZFWlgPHszVMF4P1lqxEH-64" value="" style="endArrow=none;html=1;rounded=0;entryX=0.669;entryY=0.067;entryDx=0;entryDy=0;entryPerimeter=0;exitX=0.36;exitY=1.07;exitDx=0;exitDy=0;exitPerimeter=0;" edge="1" parent="1" source="ZFWlgPHszVMF4P1lqxEH-56" target="ZFWlgPHszVMF4P1lqxEH-57">
          <mxGeometry relative="1" as="geometry">
            <mxPoint x="510" y="350" as="sourcePoint" />
            <mxPoint x="670" y="350" as="targetPoint" />
          </mxGeometry>
        </mxCell>
        <mxCell id="ZFWlgPHszVMF4P1lqxEH-65" value="N" style="resizable=0;html=1;whiteSpace=wrap;align=right;verticalAlign=bottom;" connectable="0" vertex="1" parent="ZFWlgPHszVMF4P1lqxEH-64">
          <mxGeometry x="1" relative="1" as="geometry" />
        </mxCell>
        <mxCell id="ZFWlgPHszVMF4P1lqxEH-66" value="" style="endArrow=none;html=1;rounded=0;exitX=0.772;exitY=0.99;exitDx=0;exitDy=0;exitPerimeter=0;entryX=0.4;entryY=0.25;entryDx=0;entryDy=0;entryPerimeter=0;" edge="1" parent="1" source="ZFWlgPHszVMF4P1lqxEH-58" target="ZFWlgPHszVMF4P1lqxEH-56">
          <mxGeometry relative="1" as="geometry">
            <mxPoint x="510" y="350" as="sourcePoint" />
            <mxPoint x="670" y="350" as="targetPoint" />
          </mxGeometry>
        </mxCell>
        <mxCell id="ZFWlgPHszVMF4P1lqxEH-67" value="" style="endArrow=none;html=1;rounded=0;exitX=0.416;exitY=0.99;exitDx=0;exitDy=0;exitPerimeter=0;entryX=0.88;entryY=0.01;entryDx=0;entryDy=0;entryPerimeter=0;" edge="1" parent="1" source="ZFWlgPHszVMF4P1lqxEH-59" target="ZFWlgPHszVMF4P1lqxEH-56">
          <mxGeometry relative="1" as="geometry">
            <mxPoint x="510" y="350" as="sourcePoint" />
            <mxPoint x="670" y="350" as="targetPoint" />
          </mxGeometry>
        </mxCell>
        <mxCell id="ZFWlgPHszVMF4P1lqxEH-68" value="" style="endArrow=none;html=1;rounded=0;entryX=0.3;entryY=1.08;entryDx=0;entryDy=0;entryPerimeter=0;exitX=0.896;exitY=0.99;exitDx=0;exitDy=0;exitPerimeter=0;" edge="1" parent="1" source="ZFWlgPHszVMF4P1lqxEH-56" target="ZFWlgPHszVMF4P1lqxEH-60">
          <mxGeometry relative="1" as="geometry">
            <mxPoint x="700" y="350" as="sourcePoint" />
            <mxPoint x="670" y="350" as="targetPoint" />
          </mxGeometry>
        </mxCell>
        <mxCell id="ZFWlgPHszVMF4P1lqxEH-69" value="" style="endArrow=none;html=1;rounded=0;entryX=0.2;entryY=-0.03;entryDx=0;entryDy=0;entryPerimeter=0;exitX=0.632;exitY=1.03;exitDx=0;exitDy=0;exitPerimeter=0;" edge="1" parent="1" source="ZFWlgPHszVMF4P1lqxEH-56" target="ZFWlgPHszVMF4P1lqxEH-61">
          <mxGeometry relative="1" as="geometry">
            <mxPoint x="510" y="350" as="sourcePoint" />
            <mxPoint x="670" y="350" as="targetPoint" />
          </mxGeometry>
        </mxCell>
      </root>
    </mxGraphModel>
  </diagram>
</mxfile>
